<svg data-v-423bf9ae="" xmlns="http://www.w3.org/2000/svg" viewBox="0 0 228 90" class="iconLeft"><!----><!----><!----><g data-v-423bf9ae="" id="3831ee4f-0294-417c-ba2b-4c44fc438885" fill="#ffffff" transform="matrix(4.624277320691961,0,0,4.624277320691961,94.69782324476043,1.335259916485299)"><path d="M0.90 6.22L0.90 6.22L0.90 6.22Q0.71 6.17 0.51 6.05L0.51 6.05L0.51 6.05Q0.31 5.93 0.16 5.78L0.16 5.78L0.16 5.78Q0 5.62-0.08 5.43L-0.08 5.43L-0.08 5.43Q-0.16 5.24-0.12 5.02L-0.12 5.02L-0.12 5.02Q-0.04 4.57 0.40 4.17L0.40 4.17L0.40 4.17Q0.83 3.77 1.57 3.54L1.57 3.54L1.57 3.50L1.57 3.50Q1.59 3.35 1.77 3.19L1.77 3.19L1.77 3.19Q1.96 3.04 2.23 2.98L2.23 2.98L2.23 2.98Q2.49 2.93 2.60 2.98L2.60 2.98L2.60 2.98Q2.72 3.04 2.72 3.13L2.72 3.13L2.72 3.13Q2.72 3.16 2.71 3.19L2.71 3.19L2.71 3.19Q2.71 3.23 2.71 3.25L2.71 3.25L2.71 3.32L2.71 3.32Q3.38 3.27 4.20 3.36L4.20 3.36L4.20 3.36Q5.18 3.49 5.80 3.83L5.80 3.83L5.80 3.83Q6.41 4.17 6.73 4.61L6.73 4.61L6.73 4.61Q7.04 5.06 7.12 5.54L7.12 5.54L7.12 5.54Q7.19 6.02 7.11 6.41L7.11 6.41L7.11 6.41Q7.03 6.88 6.81 7.25L6.81 7.25L6.81 7.25Q6.59 7.63 6.29 7.92L6.29 7.92L6.29 7.92Q5.99 8.22 5.62 8.44L5.62 8.44L5.62 8.44Q5.25 8.65 4.84 8.80L4.84 8.80L4.84 8.80Q5.28 8.90 5.58 9.11L5.58 9.11L5.58 9.11Q5.89 9.32 6.08 9.61L6.08 9.61L6.08 9.61Q6.28 9.90 6.36 10.25L6.36 10.25L6.36 10.25Q6.44 10.61 6.41 10.98L6.41 10.98L6.41 10.98Q6.38 11.55 6.12 12.05L6.12 12.05L6.12 12.05Q5.85 12.55 5.40 12.92L5.40 12.92L5.40 12.92Q4.95 13.29 4.33 13.49L4.33 13.49L4.33 13.49Q3.71 13.70 2.95 13.67L2.95 13.67L2.79 13.67L2.79 13.67Q2.58 13.85 2.34 13.94L2.34 13.94L2.34 13.94Q2.11 14.03 1.89 14.07L1.89 14.07L1.89 14.07Q1.64 14.12 1.39 14.11L1.39 14.11L1.39 14.11Q1.39 14.01 1.40 13.91L1.40 13.91L1.40 13.91Q1.41 13.81 1.41 13.71L1.41 13.71L1.41 13.71Q1.41 13.60 1.42 13.49L1.42 13.49L1.42 13.49Q1.26 13.47 1.11 13.41L1.11 13.41L1.11 13.41Q0.97 13.37 0.83 13.32L0.83 13.32L0.83 13.32Q0.68 13.28 0.57 13.22L0.57 13.22L0.57 13.22Q0.52 13.14 0.49 13.02L0.49 13.02L0.49 13.02Q0.46 12.91 0.46 12.78L0.46 12.78L0.46 12.78Q0.45 12.65 0.51 12.48L0.51 12.48L0.51 12.48Q0.93 12.65 1.48 12.73L1.48 12.73L1.48 12.73Q1.50 12.03 1.52 11.07L1.52 11.07L1.52 11.07Q1.54 10.12 1.54 9.06L1.54 9.06L1.54 9.06Q1.54 7.88 1.55 6.73L1.55 6.73L1.55 6.73Q1.56 5.58 1.56 4.76L1.56 4.76L1.56 4.76Q1.16 4.96 0.94 5.32L0.94 5.32L0.94 5.32Q0.72 5.67 0.90 6.22ZM5.11 11.05L5.11 11.05L5.11 11.05Q5.17 10.45 4.94 10.08L4.94 10.08L4.94 10.08Q4.70 9.72 4.33 9.54L4.33 9.54L4.33 9.54Q3.95 9.35 3.51 9.31L3.51 9.31L3.51 9.31Q3.06 9.27 2.71 9.30L2.71 9.30L2.71 9.30Q2.73 10.43 2.75 11.35L2.75 11.35L2.75 11.35Q2.76 12.28 2.78 12.87L2.78 12.87L2.78 12.87Q3.20 12.88 3.60 12.77L3.60 12.77L3.60 12.77Q3.99 12.66 4.31 12.43L4.31 12.43L4.31 12.43Q4.63 12.20 4.85 11.85L4.85 11.85L4.85 11.85Q5.07 11.50 5.11 11.05ZM2.68 4.44L2.68 4.44L2.68 4.44Q2.65 5.14 2.65 6.10L2.65 6.10L2.65 6.10Q2.65 7.05 2.68 8.23L2.68 8.23L2.68 8.23Q2.68 8.34 2.68 8.44L2.68 8.44L2.68 8.44Q2.68 8.54 2.69 8.65L2.69 8.65L2.69 8.65Q3.19 8.61 3.72 8.42L3.72 8.42L3.72 8.42Q4.25 8.22 4.70 7.89L4.70 7.89L4.70 7.89Q5.14 7.56 5.43 7.12L5.43 7.12L5.43 7.12Q5.71 6.67 5.71 6.14L5.71 6.14L5.71 6.14Q5.71 5.73 5.50 5.41L5.50 5.41L5.50 5.41Q5.28 5.09 4.92 4.87L4.92 4.87L4.92 4.87Q4.55 4.65 4.08 4.54L4.08 4.54L4.08 4.54Q3.61 4.43 3.10 4.43L3.10 4.43L3.10 4.43Q2.99 4.43 2.89 4.43L2.89 4.43L2.89 4.43Q2.79 4.43 2.68 4.44ZM9.37 3.71L9.37 3.71L9.37 3.71Q9.34 4.20 9.27 4.84L9.27 4.84L9.27 4.84Q9.20 5.48 9.13 6.22L9.13 6.22L9.13 6.22Q9.05 6.96 8.98 7.77L8.98 7.77L8.98 7.77Q8.90 8.57 8.85 9.39L8.85 9.39L8.85 9.39Q8.79 10.21 8.80 10.73L8.80 10.73L8.80 10.73Q8.80 11.24 8.86 11.57L8.86 11.57L8.86 11.57Q8.91 11.89 9.01 12.09L9.01 12.09L9.01 12.09Q9.11 12.28 9.26 12.46L9.26 12.46L9.26 12.46Q9.08 12.56 8.93 12.62L8.93 12.62L8.93 12.62Q8.78 12.67 8.67 12.70L8.67 12.70L8.67 12.70Q8.53 12.74 8.42 12.74L8.42 12.74L8.42 12.74Q8.22 12.74 8.07 12.54L8.07 12.54L8.07 12.54Q7.92 12.35 7.83 12.03L7.83 12.03L7.83 12.03Q7.74 11.72 7.69 11.33L7.69 11.33L7.69 11.33Q7.64 10.94 7.64 10.55L7.64 10.55L7.64 10.55Q7.64 10.14 7.67 9.60L7.67 9.60L7.67 9.60Q7.70 9.06 7.73 8.46L7.73 8.46L7.73 8.46Q7.77 7.85 7.81 7.18L7.81 7.18L7.81 7.18Q7.85 6.52 7.88 5.87L7.88 5.87L7.88 5.87Q7.90 5.36 7.93 4.95L7.93 4.95L7.93 4.95Q7.96 4.59 7.97 4.30L7.97 4.30L7.97 4.30Q7.98 4.01 7.96 3.95L7.96 3.95L7.96 3.95Q8.04 3.84 8.16 3.79L8.16 3.79L8.16 3.79Q8.29 3.73 8.39 3.69L8.39 3.69L8.39 3.69Q8.53 3.65 8.67 3.62L8.67 3.62L8.93 3.62L8.93 3.62Q9.04 3.62 9.16 3.64L9.16 3.64L9.16 3.64Q9.28 3.66 9.37 3.71ZM13.78 10.21L13.78 10.21L13.78 10.21Q13.75 10.75 13.60 11.20L13.60 11.20L13.60 11.20Q13.44 11.65 13.17 11.98L13.17 11.98L13.17 11.98Q12.89 12.32 12.52 12.51L12.52 12.51L12.52 12.51Q12.14 12.70 11.69 12.71L11.69 12.71L11.69 12.71Q11.29 12.73 10.94 12.52L10.94 12.52L10.94 12.52Q10.60 12.32 10.34 11.95L10.34 11.95L10.34 11.95Q10.08 11.58 9.95 11.07L9.95 11.07L9.95 11.07Q9.82 10.55 9.87 9.95L9.87 9.95L9.87 9.95Q9.91 9.26 10.13 8.76L10.13 8.76L10.13 8.76Q10.35 8.26 10.60 7.93L10.60 7.93L10.60 7.93Q10.84 7.60 11.05 7.44L11.05 7.44L11.05 7.44Q11.27 7.29 11.32 7.26L11.32 7.26L11.32 7.26Q11.42 7.22 11.50 7.24L11.50 7.24L11.50 7.24Q11.58 7.26 11.68 7.29L11.68 7.29L11.68 7.29Q11.70 7.30 11.73 7.36L11.73 7.36L11.73 7.36Q11.79 7.45 11.80 7.71L11.80 7.71L11.80 7.71Q11.87 7.56 11.98 7.46L11.98 7.46L11.98 7.46Q12.09 7.37 12.20 7.33L12.20 7.33L12.20 7.33Q12.33 7.27 12.47 7.26L12.47 7.26L12.47 7.26Q12.56 7.25 12.80 7.41L12.80 7.41L12.80 7.41Q13.04 7.57 13.27 7.93L13.27 7.93L13.27 7.93Q13.49 8.29 13.66 8.85L13.66 8.85L13.66 8.85Q13.82 9.42 13.78 10.21ZM12.85 10.05L12.85 10.05L12.85 10.05Q12.87 9.72 12.83 9.39L12.83 9.39L12.83 9.39Q12.80 9.05 12.72 8.77L12.72 8.77L12.72 8.77Q12.65 8.49 12.54 8.32L12.54 8.32L12.54 8.32Q12.43 8.15 12.32 8.15L12.32 8.15L12.32 8.15Q12.20 8.18 12.04 8.27L12.04 8.27L12.04 8.27Q11.92 8.35 11.77 8.53L11.77 8.53L11.77 8.53Q11.62 8.71 11.48 9.04L11.48 9.04L11.48 9.04Q11.47 9.00 11.46 8.89L11.46 8.89L11.46 8.89Q11.44 8.79 11.44 8.63L11.44 8.63L11.44 8.63Q11.43 8.48 11.46 8.20L11.46 8.20L11.46 8.20Q11.27 8.44 11.16 8.75L11.16 8.75L11.16 8.75Q11.06 9.06 11.01 9.35L11.01 9.35L11.01 9.35Q10.95 9.69 10.92 10.04L10.92 10.04L10.92 10.04Q10.91 10.40 10.96 10.76L10.96 10.76L10.96 10.76Q11.01 11.12 11.12 11.39L11.12 11.39L11.12 11.39Q11.24 11.66 11.40 11.83L11.40 11.83L11.40 11.83Q11.57 11.99 11.80 11.98L11.80 11.98L11.80 11.98Q12.03 11.96 12.21 11.79L12.21 11.79L12.21 11.79Q12.39 11.61 12.52 11.33L12.52 11.33L12.52 11.33Q12.66 11.06 12.74 10.72L12.74 10.72L12.74 10.72Q12.82 10.38 12.85 10.05ZM16.02 12.69L16.02 12.69L16.02 12.69Q15.74 12.69 15.44 12.54L15.44 12.54L15.44 12.54Q15.13 12.39 14.88 12.08L14.88 12.08L14.88 12.08Q14.62 11.77 14.45 11.31L14.45 11.31L14.45 11.31Q14.29 10.86 14.29 10.24L14.29 10.24L14.29 10.24Q14.29 9.34 14.52 8.74L14.52 8.74L14.52 8.74Q14.75 8.15 15.09 7.79L15.09 7.79L15.09 7.79Q15.42 7.42 15.82 7.27L15.82 7.27L15.82 7.27Q16.21 7.12 16.54 7.12L16.54 7.12L16.54 7.12Q16.88 7.12 17.11 7.24L17.11 7.24L17.11 7.24Q17.34 7.36 17.49 7.51L17.49 7.51L17.49 7.25L17.49 7.25Q17.57 7.18 17.67 7.12L17.67 7.12L17.67 7.12Q17.77 7.07 17.88 7.04L17.88 7.04L17.88 7.04Q17.99 7 18.12 7L18.12 7L18.32 7L18.32 7Q18.40 7.01 18.49 7.03L18.49 7.03L18.49 7.03Q18.58 7.04 18.62 7.10L18.62 7.10L18.62 7.10Q18.54 8.89 18.48 9.99L18.48 9.99L18.48 9.99Q18.43 11.10 18.40 11.72L18.40 11.72L18.40 11.72Q18.36 12.44 18.35 12.77L18.35 12.77L18.35 12.77Q18.32 13.34 18.20 13.91L18.20 13.91L18.20 13.91Q18.07 14.48 17.81 14.93L17.81 14.93L17.81 14.93Q17.55 15.38 17.13 15.65L17.13 15.65L17.13 15.65Q16.71 15.93 16.09 15.93L16.09 15.93L16.09 15.93Q15.56 15.93 15.24 15.72L15.24 15.72L15.24 15.72Q14.92 15.52 14.75 15.22L14.75 15.22L14.75 15.22Q14.57 14.92 14.52 14.58L14.52 14.58L14.52 14.58Q14.46 14.25 14.46 13.97L14.46 13.97L14.46 13.97Q14.46 13.90 14.54 13.77L14.54 13.77L14.54 13.77Q14.62 13.63 14.76 13.49L14.76 13.49L14.76 13.49Q14.90 13.34 15.12 13.23L15.12 13.23L15.12 13.23Q15.34 13.13 15.61 13.10L15.61 13.10L15.61 13.10Q15.49 13.47 15.46 13.77L15.46 13.77L15.46 13.77Q15.44 13.93 15.45 14.10L15.45 14.10L15.45 14.10Q15.45 14.55 15.63 14.85L15.63 14.85L15.63 14.85Q15.80 15.15 16.17 15.15L16.17 15.15L16.17 15.15Q16.57 15.15 16.82 14.81L16.82 14.81L16.82 14.81Q17.06 14.48 17.19 14.01L17.19 14.01L17.19 14.01Q17.32 13.54 17.37 13.02L17.37 13.02L17.37 13.02Q17.42 12.51 17.42 12.15L17.42 12.15L17.42 11.76L17.42 11.76Q17.34 11.91 17.22 12.07L17.22 12.07L17.22 12.07Q17.10 12.24 16.94 12.37L16.94 12.37L16.94 12.37Q16.78 12.51 16.55 12.60L16.55 12.60L16.55 12.60Q16.32 12.69 16.02 12.69ZM16.58 7.90L16.58 7.90L16.58 7.90Q16.35 7.90 16.14 8.11L16.14 8.11L16.14 8.11Q15.93 8.31 15.76 8.65L15.76 8.65L15.76 8.65Q15.60 8.98 15.50 9.41L15.50 9.41L15.50 9.41Q15.41 9.83 15.41 10.25L15.41 10.25L15.41 10.25Q15.41 10.53 15.44 10.81L15.44 10.81L15.44 10.81Q15.48 11.10 15.58 11.34L15.58 11.34L15.58 11.34Q15.68 11.58 15.85 11.73L15.85 11.73L15.85 11.73Q16.01 11.88 16.28 11.88L16.28 11.88L16.28 11.88Q16.49 11.87 16.67 11.72L16.67 11.72L16.67 11.72Q16.82 11.59 16.97 11.32L16.97 11.32L16.97 11.32Q17.13 11.05 17.23 10.54L17.23 10.54L17.23 10.54Q17.34 10.65 17.40 10.75L17.40 10.75L17.40 10.75Q17.46 10.84 17.50 10.92L17.50 10.92L17.50 10.92Q17.51 10.81 17.52 10.66L17.52 10.66L17.52 10.66Q17.53 10.51 17.53 10.32L17.53 10.32L17.53 10.32Q17.53 9.95 17.49 9.52L17.49 9.52L17.49 9.52Q17.45 9.09 17.34 8.74L17.34 8.74L17.34 8.74Q17.24 8.38 17.06 8.14L17.06 8.14L17.06 8.14Q16.87 7.90 16.58 7.90ZM20.97 12.69L20.97 12.69L20.97 12.69Q20.69 12.69 20.38 12.54L20.38 12.54L20.38 12.54Q20.08 12.39 19.82 12.08L19.82 12.08L19.82 12.08Q19.56 11.77 19.40 11.31L19.40 11.31L19.40 11.31Q19.24 10.86 19.24 10.24L19.24 10.24L19.24 10.24Q19.24 9.34 19.47 8.74L19.47 8.74L19.47 8.74Q19.70 8.15 20.04 7.79L20.04 7.79L20.04 7.79Q20.37 7.42 20.77 7.27L20.77 7.27L20.77 7.27Q21.16 7.12 21.49 7.12L21.49 7.12L21.49 7.12Q21.83 7.12 22.06 7.24L22.06 7.24L22.06 7.24Q22.29 7.36 22.44 7.51L22.44 7.51L22.44 7.25L22.44 7.25Q22.52 7.18 22.62 7.12L22.62 7.12L22.62 7.12Q22.72 7.07 22.83 7.04L22.83 7.04L22.83 7.04Q22.94 7 23.06 7L23.06 7L23.27 7L23.27 7Q23.35 7.01 23.44 7.03L23.44 7.03L23.44 7.03Q23.53 7.04 23.57 7.10L23.57 7.10L23.57 7.10Q23.49 8.89 23.43 9.99L23.43 9.99L23.43 9.99Q23.38 11.10 23.35 11.72L23.35 11.72L23.35 11.72Q23.31 12.44 23.30 12.77L23.30 12.77L23.30 12.77Q23.27 13.34 23.15 13.91L23.15 13.91L23.15 13.91Q23.02 14.48 22.76 14.93L22.76 14.93L22.76 14.93Q22.50 15.38 22.08 15.65L22.08 15.65L22.08 15.65Q21.66 15.93 21.04 15.93L21.04 15.93L21.04 15.93Q20.51 15.93 20.19 15.72L20.19 15.72L20.19 15.72Q19.87 15.52 19.69 15.22L19.69 15.22L19.69 15.22Q19.52 14.92 19.47 14.58L19.47 14.58L19.47 14.58Q19.41 14.25 19.41 13.97L19.41 13.97L19.41 13.97Q19.41 13.90 19.49 13.77L19.49 13.77L19.49 13.77Q19.56 13.63 19.71 13.49L19.71 13.49L19.71 13.49Q19.85 13.34 20.07 13.23L20.07 13.23L20.07 13.23Q20.29 13.13 20.56 13.10L20.56 13.10L20.56 13.10Q20.44 13.47 20.41 13.77L20.41 13.77L20.41 13.77Q20.38 13.93 20.40 14.10L20.40 14.10L20.40 14.10Q20.40 14.55 20.58 14.85L20.58 14.85L20.58 14.85Q20.75 15.15 21.12 15.15L21.12 15.15L21.12 15.15Q21.52 15.15 21.77 14.81L21.77 14.81L21.77 14.81Q22.01 14.48 22.14 14.01L22.14 14.01L22.14 14.01Q22.27 13.54 22.32 13.02L22.32 13.02L22.32 13.02Q22.37 12.51 22.37 12.15L22.37 12.15L22.37 11.76L22.37 11.76Q22.29 11.91 22.17 12.07L22.17 12.07L22.17 12.07Q22.05 12.24 21.89 12.37L21.89 12.37L21.89 12.37Q21.72 12.51 21.50 12.60L21.50 12.60L21.50 12.60Q21.27 12.69 20.97 12.69ZM21.53 7.90L21.53 7.90L21.53 7.90Q21.30 7.90 21.09 8.11L21.09 8.11L21.09 8.11Q20.88 8.31 20.71 8.65L20.71 8.65L20.71 8.65Q20.55 8.98 20.45 9.41L20.45 9.41L20.45 9.41Q20.36 9.83 20.36 10.25L20.36 10.25L20.36 10.25Q20.36 10.53 20.39 10.81L20.39 10.81L20.39 10.81Q20.43 11.10 20.53 11.34L20.53 11.34L20.53 11.34Q20.63 11.58 20.79 11.73L20.79 11.73L20.79 11.73Q20.96 11.88 21.23 11.88L21.23 11.88L21.23 11.88Q21.44 11.87 21.62 11.72L21.62 11.72L21.62 11.72Q21.77 11.59 21.92 11.32L21.92 11.32L21.92 11.32Q22.08 11.05 22.18 10.54L22.18 10.54L22.18 10.54Q22.29 10.65 22.35 10.75L22.35 10.75L22.35 10.75Q22.41 10.84 22.45 10.92L22.45 10.92L22.45 10.92Q22.46 10.81 22.47 10.66L22.47 10.66L22.47 10.66Q22.48 10.51 22.48 10.32L22.48 10.32L22.48 10.32Q22.48 9.95 22.44 9.52L22.44 9.52L22.44 9.52Q22.39 9.09 22.29 8.74L22.29 8.74L22.29 8.74Q22.19 8.38 22.00 8.14L22.00 8.14L22.00 8.14Q21.82 7.90 21.53 7.90ZM28.37 11.87L28.37 11.87L28.37 11.87Q28.40 11.96 28.45 12.04L28.45 12.04L28.45 12.04Q28.49 12.11 28.57 12.17L28.57 12.17L28.57 12.17Q28.64 12.24 28.75 12.25L28.75 12.25L28.75 12.25Q28.66 12.44 28.56 12.51L28.56 12.51L28.56 12.51Q28.51 12.55 28.46 12.56L28.46 12.56L28.46 12.56Q28.34 12.61 28.10 12.61L28.10 12.61L28.10 12.61Q27.85 12.61 27.62 12.46L27.62 12.46L27.62 12.46Q27.54 12.39 27.47 12.25L27.47 12.25L27.47 12.25Q27.40 12.14 27.35 11.94L27.35 11.94L27.35 11.94Q27.30 11.74 27.28 11.43L27.28 11.43L27.28 11.43Q27.08 11.84 26.84 12.08L26.84 12.08L26.84 12.08Q26.61 12.32 26.37 12.43L26.37 12.43L26.37 12.43Q26.11 12.58 25.84 12.61L25.84 12.61L25.84 12.61Q25.50 12.63 25.19 12.49L25.19 12.49L25.19 12.49Q24.88 12.35 24.67 12.05L24.67 12.05L24.67 12.05Q24.46 11.76 24.35 11.33L24.35 11.33L24.35 11.33Q24.24 10.91 24.28 10.38L24.28 10.38L24.28 10.38Q24.32 9.82 24.50 9.38L24.50 9.38L24.50 9.38Q24.68 8.94 24.92 8.60L24.92 8.60L24.92 8.60Q25.17 8.26 25.44 8.02L25.44 8.02L25.44 8.02Q25.72 7.78 25.97 7.62L25.97 7.62L25.97 7.62Q26.22 7.46 26.41 7.39L26.41 7.39L26.41 7.39Q26.59 7.31 26.65 7.30L26.65 7.30L26.65 7.30Q26.80 7.26 26.91 7.27L26.91 7.27L26.91 7.27Q27.02 7.29 27.10 7.40L27.10 7.40L27.10 7.40Q27.13 7.44 27.17 7.49L27.17 7.49L27.17 7.49Q27.19 7.55 27.23 7.64L27.23 7.64L27.23 7.64Q27.28 7.72 27.30 7.83L27.30 7.83L27.30 7.83Q26.97 7.98 26.69 8.17L26.69 8.17L26.69 8.17Q26.40 8.35 26.16 8.61L26.16 8.61L26.16 8.61Q25.92 8.87 25.74 9.24L25.74 9.24L25.74 9.24Q25.57 9.61 25.47 10.14L25.47 10.14L25.47 10.14Q25.33 10.81 25.55 11.22L25.55 11.22L25.55 11.22Q25.76 11.63 26.13 11.57L26.13 11.57L26.13 11.57Q26.35 11.50 26.55 11.31L26.55 11.31L26.55 11.31Q26.73 11.14 26.93 10.81L26.93 10.81L26.93 10.81Q27.13 10.49 27.30 9.91L27.30 9.91L27.30 9.91Q27.37 9.09 27.42 8.62L27.42 8.62L27.42 8.62Q27.47 8.15 27.51 7.90L27.51 7.90L27.51 7.90Q27.56 7.62 27.59 7.52L27.59 7.52L27.59 7.52Q27.63 7.45 27.75 7.39L27.75 7.39L27.75 7.39Q27.88 7.33 28.03 7.29L28.03 7.29L28.03 7.29Q28.18 7.25 28.30 7.24L28.30 7.24L28.30 7.24Q28.42 7.23 28.46 7.25L28.46 7.25L28.46 7.25Q28.49 7.26 28.49 7.58L28.49 7.58L28.49 7.58Q28.49 7.90 28.47 8.39L28.47 8.39L28.47 8.39Q28.45 8.87 28.42 9.44L28.42 9.44L28.42 9.44Q28.40 10.01 28.38 10.51L28.38 10.51L28.38 10.51Q28.36 11.02 28.35 11.40L28.35 11.40L28.35 11.40Q28.34 11.77 28.37 11.87Z"></path></g><!----><g data-v-423bf9ae="" id="a1229e73-1e07-4d82-ad4f-54b5ba0b9f9d" transform="matrix(2.8125,0,0,2.8125,-7.170000076293945,0)" stroke="none" fill="#ffffff"><path d="M2.83 18.247l26.34-9.124L2.83 0zM29.17 32V13.753L2.83 22.877z"></path></g><!----></svg>